<svg xmlns="http://www.w3.org/2000/svg" viewBox="0 0 176.8 68.63" class="logo"><path d="M49.47 68.63H39.8v-52h2.32L46 21.16a25.45 25.45 0 012.85-2.32A21.77 21.77 0 0152 17a19.07 19.07 0 013.46-1.25 14.63 14.63 0 013.62-.46 19.63 19.63 0 017.47 1.42 18.46 18.46 0 016.12 4A18.83 18.83 0 0176.82 27a21.21 21.21 0 011.51 8.14 22 22 0 01-1.51 8.35 18.55 18.55 0 01-4.13 6.29 17.92 17.92 0 01-6.12 4 20.29 20.29 0 01-7.47 1.37 11.4 11.4 0 01-2.51-.28 17.06 17.06 0 01-2.46-.76q-1.21-.47-2.39-1.07t-2.27-1.23zM68.7 35.12a11.51 11.51 0 00-.76-4.29 9.55 9.55 0 00-2.06-3.22 8.88 8.88 0 00-3.06-2 9.94 9.94 0 00-3.73-.7 9.8 9.8 0 00-3.71.7 8.92 8.92 0 00-3 2 9.54 9.54 0 00-2.06 3.22 11.5 11.5 0 00-.76 4.29 11.2 11.2 0 00.76 4.18 9.73 9.73 0 002.06 3.23 9.22 9.22 0 003 2.07 9.4 9.4 0 003.71.74 9.53 9.53 0 003.73-.74 9.18 9.18 0 003.06-2.07 9.75 9.75 0 002.06-3.23 11.21 11.21 0 00.76-4.18zM95 6.4a6.14 6.14 0 01-.51 2.5 6.42 6.42 0 01-1.39 2 6.7 6.7 0 01-2.1 1.39 6.45 6.45 0 01-5 0 6.44 6.44 0 01-3.41-3.39 6.13 6.13 0 01-.51-2.5 6.18 6.18 0 01.51-2.48A6.39 6.39 0 0186 .51a6.45 6.45 0 015 0 6.72 6.72 0 012.06 1.37 6.37 6.37 0 011.39 2A6.19 6.19 0 0195 6.4zm-1.69 47.88h-9.67V16.63h9.67zM137.08 68.63h-9.67V51.75q-1.09.63-2.23 1.23a23.64 23.64 0 01-2.36 1.07 17.08 17.08 0 01-2.46.76 11.4 11.4 0 01-2.51.28 19.22 19.22 0 01-7.47-1.46 18.63 18.63 0 01-6.12-4.1 19.2 19.2 0 01-4.13-6.31 21.1 21.1 0 01-1.51-8.1 21.2 21.2 0 011.51-8.12 18.82 18.82 0 014.13-6.28 18.45 18.45 0 016.12-4 19.62 19.62 0 017.47-1.42 14.42 14.42 0 013.6.46 19.75 19.75 0 013.46 1.24 20.63 20.63 0 013.22 1.88 33.09 33.09 0 012.9 2.32l3.73-4.46h2.32zm-9.67-33.5a10 10 0 00-.76-3.81A11 11 0 00124.6 28a10.23 10.23 0 00-3-2.29 8.25 8.25 0 00-3.71-.86 9.6 9.6 0 00-3.71.72 8.83 8.83 0 00-3 2.06 9.7 9.7 0 00-2 3.22 11.52 11.52 0 00-.74 4.24 12 12 0 00.74 4.34 9.22 9.22 0 002 3.22 8.65 8.65 0 003 2 10 10 0 003.71.69 8.24 8.24 0 003.71-.86 10.23 10.23 0 003-2.29 11 11 0 002.06-3.27 10 10 0 00.75-3.8zM166.7 24.88L150.87 54h-11.46l15.93-29.14-15.93-21.24h11.46M17 45.05a5.44 5.44 0 001.13.23q.56.05 1.13.05a9.43 9.43 0 002.71-.39 9.79 9.79 0 002.44-1.11 9.1 9.1 0 002-1.76 9.23 9.23 0 001.46-2.3l7 7.07a18.93 18.93 0 01-3.08 3.41 19.41 19.41 0 01-3.76 2.57 18.81 18.81 0 01-4.25 1.6 19.28 19.28 0 01-4.59.54 19 19 0 01-13.54-5.58 19.29 19.29 0 01-4.13-6.28 20.65 20.65 0 01-1.52-8 21.33 21.33 0 011.51-8.16 18.43 18.43 0 0110.26-10.33 19.41 19.41 0 017.47-1.44 18.94 18.94 0 014.61.56 19.28 19.28 0 018.05 4.2 19.11 19.11 0 013.1 3.43zm4.92-19.79a5.57 5.57 0 00-1.32-.32 12.6 12.6 0 00-1.35-.07 9.6 9.6 0 00-3.71.72 8.83 8.83 0 00-3 2.06 9.7 9.7 0 00-2 3.22 11.52 11.52 0 00-.74 4.24q0 .53.05 1.2t.15 1.34q.12.69.3 1.32a4.88 4.88 0 00.46 1.13z"></path><path d="M166.71 28.83V3.62h10.08v50.42h-10.08V28.83" class="logo__cursor-bar"></path></svg>