<svg xmlns="http://www.w3.org/2000/svg" viewBox="0 0 113.09 60"><defs><style>.cls-1{fill:#00a9e0}.cls-2{fill:#fff}</style></defs><g id="Layer_2" data-name="Layer 2"><g id="Artwork"><path class="cls-1" d="M35.06 13.58a1.23 1.23 0 0 0-.61.15l-15.9 9.14A1.33 1.33 0 0 1 18 23a1.33 1.33 0 0 1-.58-.16L1.48 13.73a1.23 1.23 0 0 0-.61-.15C.2 13.58 0 14 0 14.71V39.8a1.18 1.18 0 0 0 .66 1.08l12.28 7a1.84 1.84 0 0 0 .68.27.66.66 0 0 0 .7-.74v-7.32a1.21 1.21 0 0 0-.57-1l-4.89-2.8c-.4-.29-.66-.42-.66-1.29v-7.08l9.17 5.24a1.19 1.19 0 0 0 .58.15 1.19 1.19 0 0 0 .58-.15l9.17-5.24V35c0 .86-.26 1-.66 1.25l-4.89 2.8a1.21 1.21 0 0 0-.57 1v7.32a.66.66 0 0 0 .7.74 2 2 0 0 0 .68-.27l12.28-7a1.17 1.17 0 0 0 .65-1.08V14.71c0-.67-.2-1.13-.87-1.13M53.09 0h60v60h-60z"/><path class="cls-2" d="M59.02 25.91h2.28l2.12 5.81h.04l2.1-5.81h2.28v8.18H66.4v-6.57h-.02l-2.49 6.57h-1.01l-2.45-6.57h-.02v6.57h-1.39v-8.18zM69.07 25.91h5.42v1.27h-3.96v2.08h3.75v1.23h-3.75v2.31h4.16v1.29h-5.62v-8.18zM77.86 27.18h-2.5v-1.27h6.47v1.27h-2.51v6.91h-1.46v-6.91zM82.69 25.91h1.46v3.3h3.82v-3.3h1.45v8.18h-1.45v-3.63h-3.82v3.63h-1.46v-8.18zM90.15 30a4.59 4.59 0 0 1 .33-1.78 3.92 3.92 0 0 1 2.3-2.22 5 5 0 0 1 1.75-.3 5.06 5.06 0 0 1 1.77.3 4 4 0 0 1 1.39.85 3.82 3.82 0 0 1 .92 1.34 4.59 4.59 0 0 1 .33 1.81 4.51 4.51 0 0 1-.33 1.75 4 4 0 0 1-.92 1.36 4.09 4.09 0 0 1-1.39.89 4.84 4.84 0 0 1-1.77.32 4.78 4.78 0 0 1-1.75-.32 4.05 4.05 0 0 1-1.38-.89 4.14 4.14 0 0 1-.92-1.36 4.51 4.51 0 0 1-.33-1.75m1.59 0a3.29 3.29 0 0 0 .2 1.2 2.6 2.6 0 0 0 .58 1 2.63 2.63 0 0 0 .88.63 3.09 3.09 0 0 0 2.29 0 2.67 2.67 0 0 0 .89-.63 2.9 2.9 0 0 0 .58-1 3.51 3.51 0 0 0 .2-1.2 3.44 3.44 0 0 0-.2-1.18 3.12 3.12 0 0 0-.57-.95 2.67 2.67 0 0 0-.89-.63 2.76 2.76 0 0 0-1.16-.24 2.69 2.69 0 0 0-1.15.23 2.54 2.54 0 0 0-.88.63 2.77 2.77 0 0 0-.57.95 3.21 3.21 0 0 0-.2 1.18M99.75 25.91h2.9a6.41 6.41 0 0 1 1.61.21 4.14 4.14 0 0 1 1.45.69 3.62 3.62 0 0 1 1.05 1.26 4.14 4.14 0 0 1 .41 1.93 4 4 0 0 1-.41 1.85 3.85 3.85 0 0 1-1.05 1.27 4.4 4.4 0 0 1-1.45.73 5.66 5.66 0 0 1-1.61.24h-2.9Zm2.67 6.91a5.36 5.36 0 0 0 1.13-.13 2.91 2.91 0 0 0 1-.46 2.32 2.32 0 0 0 .74-.86 2.93 2.93 0 0 0 .29-1.37 3.13 3.13 0 0 0-.29-1.43 2.35 2.35 0 0 0-.74-.87 2.67 2.67 0 0 0-1-.42 5.35 5.35 0 0 0-1.13-.12h-1.21v5.66Z"/></g></g></svg>