<?xml version="1.0" standalone="no"?>
<!DOCTYPE svg PUBLIC "-//W3C//DTD SVG 20010904//EN"
 "http://www.w3.org/TR/2001/REC-SVG-20010904/DTD/svg10.dtd">
<svg version="1.0" xmlns="http://www.w3.org/2000/svg"
 width="512.000000pt" height="512.000000pt" viewBox="0 0 512.000000 512.000000"
 preserveAspectRatio="xMidYMid meet">
<metadata>
Created by potrace 1.14, written by Peter Selinger 2001-2017
</metadata>
<g transform="translate(0.000000,512.000000) scale(0.100000,-0.100000)"
fill="#000000" stroke="none">
<path d="M69 4995 c-15 -8 -34 -32 -43 -56 -15 -38 -16 -191 -15 -1862 1
-1745 2 -1824 19 -1864 22 -51 42 -64 325 -223 72 -40 968 -551 1035 -590 36
-20 85 -48 110 -62 25 -14 117 -67 205 -117 197 -113 240 -130 284 -111 59 24
58 13 58 617 0 505 -1 555 -17 591 -16 35 -74 92 -94 92 -5 0 -20 8 -34 18
-15 11 -52 33 -82 49 -98 54 -534 304 -571 328 -73 47 -72 38 -71 599 0 276 1
515 1 533 l1 31 43 -23 c23 -12 112 -63 197 -112 85 -49 175 -101 200 -115 25
-14 231 -131 457 -261 227 -130 429 -240 448 -246 61 -17 70 -13 337 140 117
67 231 132 253 145 22 12 128 73 235 134 107 62 215 124 240 138 25 14 106 60
180 102 74 42 145 82 157 88 l21 12 0 -533 c-1 -349 -4 -541 -11 -557 -22 -52
-60 -79 -307 -217 -271 -152 -489 -281 -503 -297 -51 -57 -50 -42 -50 -639 0
-543 0 -559 20 -585 11 -15 36 -31 56 -36 47 -12 58 -7 502 248 99 57 1185
677 1215 694 14 7 55 30 91 50 85 48 113 71 133 109 15 29 16 188 16 1875 0
1824 0 1843 -20 1876 -35 57 -119 69 -195 27 -107 -60 -97 -54 -680 -390 -520
-299 -634 -365 -667 -383 -20 -12 -55 -32 -77 -46 -22 -15 -42 -26 -45 -26 -2
0 -97 -54 -211 -120 -114 -66 -210 -120 -212 -120 -3 0 -17 -8 -31 -18 -15
-11 -52 -33 -82 -49 -30 -17 -104 -59 -165 -94 -99 -58 -114 -64 -165 -64 -52
1 -67 8 -285 134 -126 73 -399 230 -605 349 -499 286 -755 433 -870 500 -52
30 -113 65 -135 77 -22 13 -139 80 -259 149 -195 112 -224 126 -265 126 -25
-1 -58 -7 -72 -15z"/>
</g>
</svg>
